<svg width="13" height="17" viewBox="0 0 13 17" fill="none" xmlns="http://www.w3.org/2000/svg">
<path d="M9.34909 7.70152H3.6718C3.18156 7.72467 2.70208 7.55267 2.338 7.22305C1.97392 6.89344 1.75479 6.43296 1.72845 5.94212V2.61032C1.75479 2.11948 1.97392 1.659 2.338 1.32938C2.70208 0.999763 3.18156 0.827763 3.6718 0.850917H11.7252V0.000966049H3.6718C2.95657 -0.0219949 2.26136 0.239607 1.73817 0.728575C1.21498 1.21754 0.906373 1.8941 0.879822 2.61032V5.94212C0.906373 6.65834 1.21498 7.33489 1.73817 7.82386C2.26136 8.31283 2.95657 8.57443 3.6718 8.55147H9.34909C9.8932 8.58007 10.4039 8.82318 10.7696 9.22769C11.1353 9.6322 11.3263 10.1652 11.3009 10.7103V13.9487C11.324 14.4923 11.132 15.0232 10.7665 15.4258C10.401 15.8285 9.89166 16.0704 9.34909 16.099H1.30413V16.949H9.34909C10.1167 16.9202 10.8418 16.5886 11.3664 16.0266C11.891 15.4646 12.1725 14.7177 12.1496 13.9487V10.7103C12.1748 9.93989 11.8943 9.19079 11.3695 8.62692C10.8447 8.06305 10.1182 7.73032 9.34909 7.70152Z" fill="#231F20"/>
</svg>
