<svg width="7" height="10" viewBox="0 0 7 10" fill="none" xmlns="http://www.w3.org/2000/svg">
<path d="M5.31125 5.0997C5.31125 5.22368 5.26208 5.34259 5.17455 5.43025C5.08702 5.51792 4.9683 5.56717 4.84451 5.56717C4.7829 5.56833 4.72169 5.55702 4.66454 5.53394C4.60739 5.51086 4.55548 5.47646 4.51191 5.43282C4.46833 5.38918 4.434 5.33719 4.41095 5.27995C4.3879 5.22271 4.37662 5.16141 4.37777 5.0997C4.37777 4.97572 4.42694 4.85682 4.51447 4.76915C4.602 4.68148 4.72073 4.63223 4.84451 4.63223C4.9683 4.63223 5.08702 4.68148 5.17455 4.76915C5.26208 4.85682 5.31125 4.97572 5.31125 5.0997ZM6.88121 5.1847C6.98641 5.41785 7.02467 5.67576 6.99169 5.92948C6.95872 6.1832 6.8558 6.4227 6.69451 6.62111L4.99726 8.73749C4.86694 8.89759 4.70252 9.02647 4.51604 9.11471C4.32957 9.20295 4.12575 9.24831 3.91951 9.24746C3.58803 9.24345 3.26779 9.12654 3.01148 8.91598L1.48396 7.70055C1.25697 7.51451 1.0928 7.26287 1.01383 6.97995C0.93486 6.69704 0.944931 6.39661 1.04267 6.11964L2.18832 2.16737C2.19634 2.13398 2.21536 2.10426 2.24229 2.083C2.26923 2.06175 2.30253 2.05019 2.33683 2.05019C2.37112 2.05019 2.40442 2.06175 2.43136 2.083C2.45829 2.10426 2.47731 2.13398 2.48533 2.16737L2.68052 2.92383C2.68052 2.96215 2.69572 2.9989 2.72277 3.026C2.74983 3.0531 2.78652 3.06832 2.82478 3.06832C2.86305 3.06832 2.89974 3.0531 2.9268 3.026C2.95385 2.9989 2.96905 2.96215 2.96905 2.92383L3.71584 0.110489C3.72627 0.0804874 3.74576 0.0544795 3.77161 0.036075C3.79746 0.0176704 3.82839 0.00778198 3.86011 0.00778198C3.89182 0.00778198 3.92275 0.0176704 3.94861 0.036075C3.97446 0.0544795 3.99395 0.0804874 4.00437 0.110489L4.65782 2.54985C4.66584 2.58324 4.68485 2.61296 4.71179 2.63422C4.73873 2.65547 4.77203 2.66703 4.80632 2.66703C4.84062 2.66703 4.87392 2.65547 4.90085 2.63422C4.92779 2.61296 4.94681 2.58324 4.95483 2.54985L5.31125 1.27492C5.31928 1.24153 5.33829 1.21181 5.36523 1.19055C5.39217 1.1693 5.42547 1.15774 5.45976 1.15774C5.49406 1.15774 5.52735 1.1693 5.55429 1.19055C5.58123 1.21181 5.60024 1.24153 5.60827 1.27492L6.88121 5.1847ZM6.09199 5.53318L5.65919 4.53023C5.62384 4.44323 5.56724 4.3665 5.49459 4.3071C5.42194 4.2477 5.33555 4.20752 5.24336 4.19025L4.1741 3.96077H4.05529C3.97908 3.96005 3.90367 3.97648 3.83464 4.00884C3.7656 4.0412 3.70471 4.08868 3.65644 4.14776L1.95919 6.26413C1.91505 6.32045 1.88244 6.38494 1.86324 6.45391C1.84404 6.52287 1.83861 6.59496 1.84729 6.66602C1.85596 6.73709 1.87856 6.80575 1.91378 6.86805C1.949 6.93035 1.99615 6.98508 2.05254 7.02909L3.56309 8.26152C3.66421 8.34294 3.78977 8.38785 3.91951 8.38901C3.99006 8.38539 4.05906 8.36686 4.12195 8.33463C4.18484 8.3024 4.24021 8.25721 4.28442 8.20202L5.98167 6.08564C6.05054 6.01533 6.09762 5.92654 6.1172 5.83001C6.13678 5.73348 6.12801 5.63333 6.09199 5.54168V5.53318Z" fill="#C2ADCC"/>
</svg>
