<svg width="14" height="14" viewBox="0 0 14 14" fill="none" xmlns="http://www.w3.org/2000/svg">
<g clip-path="url(#clip0)">
<path d="M14.0001 3.09531C13.486 3.325 12.9308 3.47812 12.3511 3.54637C12.9444 3.19069 13.3985 2.62762 13.6142 1.95781C13.059 2.28594 12.4439 2.52656 11.7902 2.65519C11.2652 2.09737 10.5189 1.75 9.69287 1.75C8.10694 1.75 6.82156 3.03537 6.82156 4.62131C6.82156 4.84531 6.84606 5.06406 6.8955 5.27494C4.5085 5.15462 2.39187 4.01144 0.975687 2.27281C0.729374 2.69675 0.587624 3.19156 0.587624 3.71656C0.587624 4.71187 1.09337 5.59212 1.86469 6.10662C1.39437 6.09306 0.951624 5.96181 0.563124 5.74831C0.563124 5.75925 0.563124 5.77281 0.563124 5.78375C0.563124 7.17544 1.55319 8.33787 2.86831 8.59994C2.62769 8.66556 2.3735 8.701 2.111 8.701C1.92506 8.701 1.74744 8.68175 1.56981 8.64894C1.93644 9.78906 2.99737 10.6203 4.25212 10.6452C3.26775 11.4161 2.03181 11.8759 0.683874 11.8759C0.451562 11.8759 0.224499 11.8624 -0.00256348 11.8348C1.27187 12.6525 2.78081 13.1254 4.40262 13.1254C9.68544 13.1254 12.5756 8.74781 12.5756 4.9525C12.5756 4.82694 12.5729 4.70356 12.5672 4.58062C13.1277 4.17856 13.6146 3.67281 14.0001 3.09575V3.09531Z" fill="#939393"/>
</g>
<defs>
<clipPath id="clip0">
<rect width="14" height="14" fill="white"/>
</clipPath>
</defs>
</svg>
